<svg width="1024" height="1024" viewBox="0 0 1024 1024" fill="none" xmlns="http://www.w3.org/2000/svg">
<path d="M522.069 962.763L505.707 962.869C471.915 961.12 433.141 953.451 402.421 938.965C377.643 927.285 344.309 905.387 332.608 880.405C330.891 876.736 330.197 872.448 329.76 868.384L325.877 832.384C325.589 829.685 324.64 827.605 322.485 825.867C311.211 816.811 300.939 807.061 291.595 795.947C276.299 777.749 266.24 748.8 260.576 725.621L257.835 716.981C256.907 714.048 255.2 710.795 252.416 709.045C233.696 703.435 218.037 690.944 208.224 673.973C204.64 667.765 202.421 661.237 200.864 654.197C198.741 644.597 197.365 635.2 196.896 625.333L195.008 585.76L194.72 577.525V565.291L195.04 560.661C195.36 556.107 195.477 552.043 196.373 547.584C198.432 537.333 205.728 528.8 216.139 526.432L221.621 525.664C222.272 523.061 222.315 520.352 221.547 517.803C213.525 515.861 205.813 509.408 211.477 508L220.971 505.632C221.696 505.451 222.837 504.405 223.125 503.765C224.576 500.661 217.312 496.085 215.115 490.453C211.563 481.365 211.947 471.104 214.528 461.845C215.136 459.648 214.773 458.059 213.056 456.544C208.725 452.693 205.152 445.92 208.821 445.835L214.229 445.707L210.891 440.8L209.024 437.835L209.963 436.832L216.587 437.045L209.771 430.667C207.381 428.437 205.259 425.824 203.968 422.699C200.224 413.696 199.659 403.819 202.443 394.443C205.376 384.555 210.24 383.115 210.421 379.893L211.019 369.632C211.669 358.336 211.52 347.424 212.8 336.16C217.397 295.669 225.653 257.195 242.485 219.883C252.128 198.528 265.035 179.211 280.565 161.813L291.307 150.933C335.861 111.093 399.605 87.8933 458.293 79.5627C463.765 78.9013 468.352 77.3653 472.992 74.5813C482.069 63.0933 496.544 60.7893 510.955 60.6293C523.925 60.48 541.621 62.9653 548.309 74.272C549.109 75.6267 550.784 76.704 552.501 76.832C568.661 77.9947 584.085 80.704 599.957 84.1173C629.323 90.4213 657.109 100.533 683.659 114.539C695.968 121.035 707.381 128.235 718.624 136.405L746.752 158.475L772.885 180.939L787.157 195.36C809.707 220.213 825.589 250.315 828.725 284.117C829.728 294.869 829.6 305.141 828.907 315.893C827.915 331.435 824 346.229 818.325 360.544C814.133 371.104 805.696 382.432 805.621 385.205L805.312 396.789C805.163 402.315 802.72 407.083 799.531 411.488L796.16 416.128C795.541 416.981 795.296 418.848 795.36 418.891C798.357 420.811 804.469 417.269 807.989 413.376L809.259 412.32C809.504 412.117 809.888 413.333 809.92 413.675C809.099 421.003 805.931 427.499 800.949 432.8L796.821 435.456C793.077 437.867 800.021 441.077 796.715 450.677C793.152 461.024 792.288 476.192 802.176 477.003C805.387 477.269 799.371 483.915 795.765 485.867C792.459 487.659 790.432 489.877 790.208 493.909L789.717 502.603C789.312 509.707 786.912 515.968 782.709 521.632C781.856 522.784 781.312 524.384 781.173 525.813C785.813 525.909 789.227 527.147 792.597 529.941C801.995 537.749 802.88 548.128 802.827 560.149L803.253 563.765L803.349 589.301L802.901 593.963L801.333 648.245C801.077 656.96 798.485 665.024 795.435 673.088C791.733 682.859 786.197 691.584 778.571 698.656C773.771 703.115 768.395 706.037 762.859 709.717C761.344 712.544 760.597 716.149 759.872 719.456L754.197 745.504C752.064 755.307 748.64 764.395 744.181 773.397C735.808 790.315 724.501 804.875 710.539 817.547C698.837 828.171 686.773 837.771 673.92 846.901C671.733 848.448 670.571 850.624 670.4 853.248L669.483 866.827C667.915 890.005 661.365 905.963 643.467 920.939C628.128 933.771 610.336 943.317 591.317 949.749C569.024 957.291 545.931 961.333 522.069 962.752V962.763ZM504.853 80.5013L532.469 79.6053C527.925 75.8293 522.144 74.112 516.971 74.1227L506.933 74.1653C502.005 74.1867 497.067 76.0747 492.608 77.856C491.04 78.4853 489.92 79.3493 489.227 81.0987L504.853 80.5013ZM256.565 537.803L258.176 570.027L262.187 605.163L273.131 671.243M280.992 712.768C285.792 726.752 289.483 764.384 297.365 776.96C303.008 785.963 309.109 794.219 317.045 801.163C325.856 808.885 334.784 815.712 344.459 822.464C366.645 837.941 389.195 852.363 412.821 865.6C442.016 881.963 475.467 896.875 508.896 899.957L528.843 899.84L534.571 900.139C557.387 898.005 583.84 891.456 602.923 878.933L619.072 868.331L673.525 827.563C691.851 813.845 716.405 791.52 727.115 771.243C733.707 758.773 738.069 746.101 741.141 732.363C744.875 715.616 747.349 699.136 748.843 681.984L753.973 623.317L757.387 560.736L758.261 555.552L758.539 541.771C758.613 538.08 758.176 534.933 758.187 531.264L758.251 513.813L758.528 504.747L758.165 488.96L757.568 481.344L755.243 426.037C755.008 420.565 754.805 415.605 751.765 410.912C749.483 407.381 747.552 403.381 746.763 399.147L743.861 383.605L740.885 369.141C739.904 364.373 728.053 364 720.853 356.885L715.179 351.285C713.301 349.44 711.883 346.581 709.227 345.44C707.413 344.661 703.157 344.555 701.344 345.387L691.883 349.792C686.827 352.139 681.909 352.832 676.363 352.704C671.392 352.587 666.763 352.704 662.187 350.507C661.376 350.112 660.736 348.693 661.312 348.107L666.667 342.656C666.901 342.421 667.541 341.28 667.243 341.173C666.944 341.067 665.813 340.779 665.44 340.864L655.893 342.987C649.973 343.627 644.096 343.819 638.24 342.667C626.645 340.384 616.469 333.269 609.653 323.851C608.149 321.771 606.827 321.323 604.341 322.187C585.888 328.629 564.021 323.051 552.373 306.645C550.357 306.667 548.672 307.083 546.688 307.52C538.784 309.259 530.773 307.957 523.243 305.173C512.363 301.152 508.619 292.757 505.28 293.483C504.512 293.653 503.371 294.581 502.624 295.296C492.704 304.875 486.912 306.645 473.995 309.568C469.067 310.688 464.384 310.56 459.275 310.464C458.101 310.443 456.427 311.744 455.52 312.704C442.592 326.347 426.304 324.224 412.544 312.48C411.04 311.2 409.643 311.051 408.011 312.288C401.835 316.971 395.285 320.725 388.384 324.32L376.235 330.645C370.923 333.931 365.557 336.555 359.637 338.645C357.301 339.467 355.243 340.96 353.664 342.901C348.587 349.163 341.312 356.128 333.216 356.16L323.563 356.203C322.08 356.203 319.936 356.096 318.859 357.205C312.107 364.245 304.917 370.315 296.651 375.445L286.581 380.256C284.352 381.323 282.645 383.051 281.973 385.397C279.456 394.187 274.88 401.355 268.725 408C267.499 409.323 266.507 411.968 265.835 413.739C262.357 422.987 260.853 432.331 259.861 442.144L256.629 474.027L255.829 495.936M209.792 552.405L209.365 563.019L209.397 576.053L212.48 636.117C213.205 650.133 217.003 663.157 225.963 674.208C228.544 677.387 230.987 680.597 234.251 683.285C240.096 688.107 246.357 692.768 254.069 693.984L264.885 694.496L260.885 672.437L251.2 609.504C248.235 590.208 245.152 571.531 239.808 552.8C239.264 550.901 238.187 549.333 236.544 548.363C230.901 545.013 221.408 540.64 216.192 542.432C211.989 543.872 209.931 548.512 209.781 552.427L209.792 552.405ZM652.341 871.531C653.141 868.064 653.013 864.757 652.235 860.949L647.659 863.797C632.789 875.573 617.653 886.56 601.077 895.893C583.957 905.525 556.096 913.003 536.608 914.219H512.491C498.955 913.429 485.984 910.304 472.949 906.869C460.661 903.627 449.344 899.147 437.845 893.867L403.947 876.021L343.125 838.368L344.811 858.613C345.344 864.981 345.323 870.891 348.651 876.629C351.221 881.067 354.229 885.056 357.899 888.907C380.096 912.149 410.699 927.285 441.557 936.235C457.973 940.992 474.389 945.035 491.488 945.984L500.288 946.475C508.395 946.923 516.661 947.787 524.651 946.389C526.965 945.984 528.779 946.123 531.157 945.952C557.195 944.139 582.539 937.28 606.187 926.272C620.043 919.819 631.797 911.253 641.803 899.797C653.899 885.952 650.613 879.083 652.352 871.52L652.341 871.531Z" fill="#21120B"/>
<path d="M567.829 522.475C567.723 523.563 566.677 524.853 565.973 525.024C561.579 526.112 556.011 511.136 557.504 500.16C558.827 490.421 563.2 481.579 569.387 474.24C574.069 469.12 579.413 465.547 586.229 464.117L588.171 464.779C588.619 464.928 588.651 466.581 588.405 467.029L585.803 471.691C577.653 482.784 571.349 495.296 569.088 509.013L567.829 522.475Z" fill="#D49A70"/>
<path d="M470.603 436.395C470.731 438.688 470.613 440.811 468.693 442.005L457.995 414.443C456.992 411.851 456.299 409.28 456.203 406.293C465.515 410.965 470.005 425.835 470.603 436.384V436.395Z" fill="#D49A70"/>
<path d="M582.976 441.675C580.032 434.923 584.875 421.568 588.512 414.496C589.397 412.779 590.464 411.275 592.565 410.688C592.949 411.936 593.163 413.888 592.789 415.051L585.355 438.368C584.992 439.499 584.395 440.171 582.976 441.664V441.675Z" fill="#D49A70"/>
<path d="M606.944 409.088C609.493 408.779 600.811 425.013 593.387 427.595C595.403 420.128 599.829 414.08 605.355 409.28L606.955 409.088H606.944Z" fill="#D49A70"/>
<path d="M452.512 421.44L448.587 416.203C446.389 413.269 444.139 410.773 440.875 409.003L439.829 406.059C440.939 405.685 443.179 405.931 444.459 407.019C448.267 410.272 451.829 414.091 454.603 418.133L452.512 421.451V421.44Z" fill="#D49A70"/>
<path d="M789.749 382.101C788.747 383.595 787.701 385.173 785.984 386.464L783.968 379.829L778.816 369.077C777.803 366.976 778.08 365.344 779.157 363.424C784.864 353.259 781.077 339.381 775.84 329.12C773.696 324.917 772.576 321.152 772.459 316.331C772.309 309.931 768.203 300.512 767.243 301.493C766.976 301.76 766.485 302.56 766.4 302.955L764.704 310.165C763.275 309.771 762.037 309.013 761.44 308.181L755.211 299.467C753.952 297.717 753.408 295.915 753.931 293.632C756.736 281.408 756.235 267.04 748.64 256.693C745.589 258.485 747.371 264.245 744.405 270.368C743.52 272.181 741.205 273.557 739.563 274.635C736.843 276.416 733.941 276.501 731.019 275.072L719.371 269.355C715.893 267.648 718.496 262.4 714.293 254.453L710.421 247.136C710.144 246.613 708.896 245.813 708.405 246.005C707.84 246.229 706.976 247.339 706.731 247.936L703.243 256.395C701.792 253.888 701.685 252.117 700.896 249.835C696.555 237.451 688.48 226.955 678.133 218.944C662.016 207.317 638.709 206.368 620.341 214.603C619.232 199.051 609.109 186.784 594.315 183.392C593.557 183.221 593.237 185.461 593.579 186.197C596.416 192.32 599.2 198.176 600.416 204.907L600.565 214.08C600.597 216.096 599.819 218.709 598.389 220.139C597.877 220.651 596.245 219.285 595.957 218.645C593.376 212.693 589.483 208.053 584.864 203.648C581.056 200.011 577.771 196.373 571.904 194.613L573.792 206.389C573.643 206.805 572.053 206.624 571.584 206.197C564.021 199.456 555.275 195.563 545.387 193.408C536.992 191.573 528.8 190.325 520.181 191.552C512.096 192.693 504.619 194.816 496.864 197.344C483.627 203.605 472.245 212.725 463.861 224.725L461.803 225.483C459.509 218.421 462.4 211.573 468.864 208.277C469.301 207.765 469.909 207.029 470.133 206.592C470.411 206.059 469.248 204.928 468.683 204.619C462.869 201.461 456.64 200.949 449.995 200.672C440.213 200.256 430.571 204.395 425.365 212.875L422.123 218.165C402.421 215.189 379.403 227.029 376.149 247.051L375.861 259.381L369.109 257.451C367.659 259.232 365.685 259.936 363.541 259.136C349.781 254.016 330.443 261.451 324.203 273.483L319.883 281.792L317.077 278.784C313.845 273.707 313.749 268.395 311.371 267.797C310.357 270.837 310.197 274.037 310.197 277.536C310.197 283.467 310.293 289.152 311.232 294.997C311.595 297.291 310.464 299.125 308.416 300.299C301.184 304.459 295.232 309.515 289.333 315.509C278.603 326.421 269.429 338.336 261.152 351.221L259.552 352.875C261.824 348.491 261.6 346.795 262.955 343.915L268.576 332C275.755 316.768 284.331 302.603 293.515 288.405C303.2 273.44 314.176 259.979 326.229 246.923C333.653 238.891 340.939 231.424 349.205 224.203C374.272 202.304 401.771 183.435 432.213 169.643C453.365 160.053 475.093 152.512 497.749 147.648C508.939 145.237 519.573 142.944 531.008 141.888C553.088 139.851 574.837 139.787 597.013 141.056C617.675 142.24 637.557 146.581 657.344 152.032C668.843 155.2 679.253 159.264 690.176 163.861C705.184 170.187 718.805 178.112 732.149 187.413C740.8 193.44 748.672 199.541 756.32 206.848C773.237 223.008 785.803 242.731 793.525 264.853C797.717 276.875 800.117 288.864 799.947 301.589L799.627 324.597C798.485 335.179 795.989 345.141 793.195 355.36C791.371 362.016 790.976 368.523 789.984 375.339L789.216 380.661L789.045 381.675C789.013 381.856 789.291 381.931 789.781 382.133L789.749 382.101Z" fill="#D49A70"/>
<path d="M700.096 141.515L697.813 141.888L697.312 141.835L696.672 141.429L670.133 131.595C644.907 122.24 609.899 116.693 582.88 115.893C574.464 115.648 566.347 115.349 557.952 115.691L544.736 116.213C514.283 117.419 479.979 124.629 451.264 134.848C440.757 138.592 430.816 142.229 420.651 146.827C383.285 163.744 343.563 188.789 314.869 218.059L305.44 227.669C303.723 229.429 303.008 230.581 301.344 232.48C299.275 234.848 297.76 236.629 293.835 241.451C297.76 200.875 306.763 178.464 324.192 151.2L328.544 142.645C329.152 142.208 330.027 141.333 330.293 140.629L338.176 135.392C362.891 121.589 388.949 111.147 416.267 103.488C433.195 98.7413 449.888 95.0827 467.435 93.2907C494.72 90.5067 521.419 89.6427 548.896 91.3067C590.912 93.856 638.048 107.381 675.477 126.741L680.587 129.387L700.085 141.525L700.096 141.515Z" fill="#FAE1BD"/>
<path d="M245.803 360.459C246.368 359.499 246.635 357.781 246.901 356.363C250.219 338.603 256.032 321.781 264.16 305.568C275.605 282.752 289.781 261.728 306.272 242.357L312.853 235.541L318.997 228.352L324.117 223.232L333.077 215.285L339.168 209.515C359.019 193.269 379.883 178.325 402.955 167.04L427.093 155.232C435.787 150.976 444.352 147.851 453.611 144.725C479.125 136.117 505.461 129.771 532.416 127.541C555.872 125.611 578.72 125.6 602.197 127.573C643.904 131.083 684.416 143.904 721.44 163.2C750.987 178.592 781.931 206.197 797.653 235.509C805.387 249.92 810.848 265.248 812.565 281.504C813.803 293.163 814.005 304.16 812.853 315.563L811.936 324.555C808.608 343.563 800.277 366.379 789.739 382.08C787.339 385.824 785.952 386.624 785.973 386.443L788.203 382.325C788.853 381.131 789.28 379.829 789.472 378.485L789.931 375.285C790.923 368.469 791.317 361.963 793.141 355.307C795.947 345.099 798.432 335.125 799.573 324.544L799.851 304.885C800.043 291.104 797.899 277.365 793.323 264.363C785.589 242.421 773.088 222.859 756.277 206.805C748.629 199.499 740.757 193.397 732.107 187.371C718.773 178.069 705.152 170.144 690.133 163.819C679.221 159.221 668.8 155.157 657.301 151.989C637.515 146.539 617.643 142.208 596.971 141.013C574.795 139.744 553.045 139.808 530.965 141.845C519.541 142.901 508.907 145.195 497.707 147.605C475.051 152.48 453.333 160.021 432.171 169.6C401.728 183.392 374.219 202.261 349.163 224.16C340.896 231.381 333.611 238.837 326.187 246.88C314.123 259.936 303.147 273.387 293.472 288.363C284.288 302.56 275.712 316.725 268.533 331.957L262.912 343.872C261.557 346.752 261.781 348.448 259.509 352.832C254.784 361.931 250.517 371.04 246.635 380.757C245.909 382.571 244.725 384.949 242.965 385.717" fill="#FAE1BD"/>
<path d="M260.768 285.419C260.768 285.643 261.184 286.475 261.376 286.411L262.261 286.229C258.869 292.277 255.616 298.4 252.619 304.651C246.752 316.875 243.733 326.496 240.587 341.461C240.171 343.435 239.84 345.44 239.584 347.435L237.536 363.84L234.987 386.027L235.253 394.123L237.152 405.92C237.216 406.315 236.651 407.563 236.267 407.531C231.029 407.051 228.299 387.979 227.541 380.192L227.669 374.208L227.595 359.445C227.563 352.992 228.192 347.296 228.576 340.939L229.28 329.173C230.88 315.435 233.184 302.379 236.171 288.853C242.763 258.955 254.507 225.184 270.933 199.808C271.285 201.451 270.773 202.901 269.493 203.765L268.597 210.763C265.045 224.395 262.325 237.813 260.512 251.893" fill="#D49A70"/>
<path d="M261.44 287.616C261.248 287.669 260.821 285.483 260.811 285.269L260.48 277.973C260.235 273.131 260 267.733 259.936 263.328C259.872 258.923 260.651 251.147 260.853 248.139C261.792 233.973 265.099 224.267 268.64 210.635L269.536 203.637C270.261 200.8 270.229 200.939 270.976 199.68C276.245 191.541 281.813 183.541 288.288 175.968L299.083 164.757L309.621 155.392L308.085 158.389C295.189 183.445 287.488 215.456 285.792 243.499C285.536 247.776 284.853 251.445 282.56 254.901L264.064 282.816L262.805 285.152" fill="#FAE1BD"/>
<path d="M293.856 241.44L284.128 253.376L282.528 255.04C284.821 251.584 285.504 247.915 285.76 243.637C287.456 215.595 295.157 183.584 308.053 158.528L309.621 155.381C316.395 149.237 321.931 146.133 329.632 140.757L330.315 140.608C330.048 141.312 329.173 142.187 328.565 142.624L324.213 151.179C306.784 178.453 297.749 205.675 294.411 237.76" fill="#D49A70"/>
<path d="M504.853 80.5013L489.227 81.0987C489.92 79.3387 491.04 78.4853 492.608 77.856C497.067 76.0747 502.005 74.1867 506.933 74.1653L516.971 74.1227C522.144 74.1013 527.925 75.8187 532.469 79.6053L504.853 80.5013Z" fill="#FAE1BD"/>
<path d="M700.096 141.515C701.589 142.443 702.987 143.125 704.235 145.035C701.547 144.16 699.584 143.2 697.813 141.888L700.096 141.515Z" fill="#AF7F5C"/>
<path d="M652.341 871.531C650.603 879.093 653.888 885.963 641.792 899.808C631.787 911.264 620.032 919.829 606.176 926.283C582.539 937.301 557.195 944.149 531.147 945.963C528.757 946.133 526.944 945.995 524.64 946.4C516.651 947.797 508.384 946.933 500.277 946.485L491.477 945.995C474.379 945.035 457.963 941.003 441.547 936.245C410.699 927.296 380.085 912.16 357.888 888.917C354.208 885.067 351.211 881.067 348.64 876.64C345.312 870.901 345.323 864.992 344.8 858.624L343.115 838.379L403.936 876.032L437.835 893.877C449.333 899.157 460.651 903.637 472.939 906.88C485.973 910.325 498.944 913.44 512.48 914.229H536.597C556.085 913.013 583.947 905.547 601.067 895.904C617.653 886.571 632.779 875.584 647.648 863.808L652.224 860.96C653.003 864.768 653.131 868.075 652.331 871.541L652.341 871.531Z" fill="#D49A70"/>
<path d="M280.789 720.768C279.787 712.053 276.181 685.963 276.181 685.963L294.731 758.421C299.861 774.155 317.035 794.432 329.92 803.627L363.403 827.509C364.821 828.523 366.965 828.949 368.427 828.096C371.797 826.112 369.888 820.331 372.16 818.677C378.549 814.027 385.333 810.656 392.757 807.968C395.616 806.933 399.157 806.539 399.52 807.691C399.584 807.904 399.456 808.992 399.317 809.163L394.699 814.976C394.208 815.595 393.717 816.736 394.016 817.205C394.315 817.675 395.637 818.016 396.384 817.995L403.531 817.739C403.829 817.739 404.512 818.624 404.437 818.891C404.384 819.061 404.117 819.851 403.989 819.968L399.019 824.405C395.712 827.36 392.32 829.536 389.429 833.195L414.581 826.208C416.747 825.611 418.507 825.643 421.472 825.792L414.283 834.133C412.416 836.299 410.528 838.027 409.088 840.885C415.819 840.693 421.611 836.107 427.712 836.48C426.059 842.144 420.555 844.981 419.061 849.269C423.275 848.117 425.984 845.643 429.28 843.467C433.984 840.384 438.325 836.843 444.32 835.285C441.835 841.685 432.576 844.309 431.68 848.597C436.139 846.891 439.723 845.28 443.936 845.035C442.795 848.8 441.717 851.04 442.24 854.816L449.077 850.997C455.552 847.381 460.864 842.4 465.013 836.224C466.357 834.219 467.957 832.48 470.08 830.912C471.083 835.371 469.525 838.987 467.744 842.453C466.635 844.619 464.523 844.736 462.667 845.728C457.056 848.725 452.544 853.12 447.957 858.144C451.531 859.552 455.989 856.96 456.224 860.64L456.917 871.701C457.12 874.976 462.421 872.853 462.848 876.469L463.392 881.12C463.616 883.083 464.832 884.181 466.763 884.224C471.488 884.331 467.637 874.517 472.544 864.747C473.205 863.424 474.667 862.133 476.224 862.656L478.325 873.877C479.211 878.624 479.659 883.189 481.451 887.744C483.456 889.269 488.501 889.216 489.973 886.773C491.669 881.643 490.677 875.349 488.203 870.667C487.36 869.067 485.76 867.733 485.728 865.781C485.611 856.203 485.664 841.717 493.792 836.704L493.504 849.419C493.397 854.101 492.651 859.029 493.739 863.616C495.467 870.987 496.832 878.059 497.344 885.579C497.739 891.488 503.584 893.323 505.077 892.416C505.632 892.075 506.485 890.731 506.613 889.995L508.075 881.216C508.448 879.008 509.184 876.32 511.136 874.944C512.117 874.699 513.525 876.128 515.136 877.611L517.344 869.472C518.901 863.765 522.453 859.392 523.04 860.587L523.851 862.251L524.405 882.656C524.683 885.632 524.725 888.661 525.941 891.435C527.157 894.208 531.317 893.803 531.84 890.763L533.056 883.691C533.28 882.411 534.656 881.205 535.787 881.323C539.36 881.685 539.2 887.979 542.453 890.635C544.32 892.149 548.053 891.157 549.792 889.6C550.496 888.267 549.803 885.856 549.248 884.384C547.296 879.243 545.291 870.688 547.125 870.517C548.768 870.357 551.904 873.995 553.824 876.576L558.741 883.136C560.277 885.184 564.245 886.539 565.973 883.829C566.987 881.984 565.547 878.539 564.8 876.501L558.645 859.573C557.621 856.757 557.163 854.091 558.091 850.645C560.875 853.845 562.421 857.131 564.309 860.576L571.381 873.483C573.269 876.928 577.312 878.976 578.784 877.109C579.189 876.597 579.691 875.2 579.552 874.539L577.301 863.413C576.875 861.291 576.459 859.243 577.056 857.045C578.848 857.376 580.405 858.432 581.685 859.552L590.997 867.627C590.272 859.872 582.837 852.309 580.565 844.085C586.592 846.4 590.795 852.725 596.085 855.573C594.357 849.216 592.128 844.704 592.32 838.336L599.488 841.76C601.397 842.677 602.944 843.253 605.483 843.776C604.309 840.853 602.72 839.008 601.088 836.587L596.277 829.44C597.739 828.779 599.136 828.875 600.277 829.728L611.125 837.813C614.464 840.299 617.397 842.997 621.749 844.096C621.355 841.237 619.84 839.733 618.411 837.643L613.707 830.773C613.461 830.421 613.504 829.173 613.845 829.141L615.264 829.045L628.725 836.096C631.541 837.664 633.941 839.285 637.472 839.499C636.096 836.032 634.272 834.059 632.299 831.424L626.933 824.256C626.656 823.883 626.699 822.475 627.083 822.453C627.371 822.443 628.256 822.453 628.629 822.613L639.829 826.965L637.259 819.925C636.917 818.987 638.859 818.251 640.021 818.283L655.563 818.699C652.491 812.352 645.12 809.685 641.184 804.661C649.472 804.363 656.992 806.347 664.256 809.216C667.232 810.389 669.835 812.907 670.261 816.021L671.381 824.245C671.563 825.589 672.235 826.805 673.536 827.541L619.083 868.309L602.933 878.912C583.851 891.435 557.387 897.995 534.581 900.117L528.853 899.819L508.907 899.936C475.477 896.853 442.027 881.941 412.832 865.579C389.205 852.331 366.656 837.92 344.469 822.443C334.805 815.701 325.877 808.864 317.056 801.141C316.981 801.067 316.896 801.003 316.821 800.928C302.283 788.181 292.171 771.147 287.915 752.288C287.915 752.288 282.592 736.267 280.8 720.747L280.789 720.768Z" fill="#D49A70"/>
<path d="M209.365 563.019C210.485 562.187 211.733 562.336 213.12 562.987C216.363 564.501 218.197 566.677 218.229 570.389L218.4 589.301L219.136 601.483C219.2 602.539 220.555 603.925 221.365 603.84C222.069 603.765 223.584 602.901 223.819 602.155L226.709 593.195C226.837 592.789 227.189 592.021 227.435 591.755C228.576 590.517 235.989 594.624 236.971 599.136C236.331 602.656 233.803 606.187 231.947 609.291C227.477 616.757 220.555 628.768 224.981 635.723C230.123 643.819 237.333 650.357 245.685 654.944C246.325 655.296 247.712 655.275 248.224 654.987C250.101 653.909 247.232 648.416 245.152 644.757L239.936 635.584C237.525 631.339 237.237 626.208 239.296 621.749L244.789 609.845C246.123 606.955 246.613 604.245 245.845 601.045C242.581 587.595 236.629 574.987 227.755 564.395C223.637 559.477 216.597 555.445 210.613 555.115L209.792 552.405C209.952 548.491 212 543.861 216.203 542.411C221.408 540.619 230.901 544.992 236.555 548.341C238.208 549.323 239.285 550.88 239.819 552.779C245.152 571.509 248.235 590.187 251.211 609.483L260.896 672.416L264.896 694.475L254.08 693.963C246.368 692.747 240.107 688.085 234.261 683.264C230.997 680.576 228.555 677.365 225.973 674.187C217.013 663.147 213.216 650.123 212.491 636.096L209.408 576.032L209.376 562.997L209.365 563.019Z" fill="#FCCAA1"/>
<path d="M209.365 563.019L209.792 552.405L210.613 555.115C216.597 555.435 223.637 559.467 227.755 564.395C236.619 574.997 242.571 587.595 245.845 601.045C246.624 604.235 246.133 606.944 244.789 609.845L239.296 621.749C237.237 626.219 237.515 631.339 239.936 635.584L245.152 644.757C247.232 648.416 250.101 653.909 248.224 654.987C247.712 655.275 246.325 655.296 245.685 654.944C237.333 650.357 230.123 643.808 224.981 635.723C220.555 628.757 227.477 616.757 231.947 609.291C233.803 606.187 236.331 602.667 236.971 599.136C235.989 594.635 228.565 590.517 227.435 591.755C227.189 592.021 226.837 592.789 226.709 593.195L223.819 602.155C223.573 602.901 222.069 603.765 221.365 603.84C220.555 603.925 219.2 602.539 219.136 601.483L218.4 589.301L218.229 570.389C218.197 566.688 216.352 564.501 213.12 562.987C211.733 562.336 210.475 562.187 209.365 563.019Z" fill="#D49A70"/>
<path d="M788.757 579.84L788.597 584.683L788.384 600.576L788.448 615.424L788.128 631.285C788 636 788.224 638.261 787.552 642.571C786.688 654.197 784.459 665.6 778.581 675.755C774.731 682.411 769.141 687.776 762.923 692.768C762.251 688.64 763.605 685.525 763.968 681.952L766.656 655.307C766.965 652.245 773.984 648.064 778.293 640.011C782.603 631.957 779.531 623.552 777.877 615.829L774.667 600.843C776.523 601.76 777.941 602.581 778.837 602.208C779.595 601.888 780.683 600.192 780.715 599.36L781.141 585.216C781.227 582.517 780.704 578.667 782.208 576.416L788.213 567.381L788.768 579.84H788.757Z" fill="#FCCAA1"/>
<path d="M769.013 627.221L770.485 606.741L771.232 594.304L772.512 575.445L773.963 573.824L783.723 560.416C784.384 559.499 787.019 559.392 788.107 559.413L789.088 556.533L789.525 559.573V579.061L788.757 579.851L788.203 567.392L782.197 576.427C780.693 578.677 781.216 582.528 781.131 585.227L780.704 599.371C780.683 600.203 779.584 601.899 778.827 602.219C777.941 602.592 776.512 601.771 774.656 600.853L777.867 615.84C779.52 623.573 782.485 632.171 778.283 640.021C774.08 647.872 766.955 652.256 766.645 655.317" fill="#D49A70"/>
<path d="M789.088 556.523L788.107 559.403C787.019 559.381 784.395 559.499 783.723 560.405L773.963 573.813L772.512 575.435L773.963 553.035C774.187 549.536 773.323 546.059 776.405 543.328C778.389 541.568 781.899 540.128 784.469 541.632C787.915 543.659 788.149 547.797 788.544 551.413L789.099 556.523H789.088Z" fill="#FCCAA1"/>
<path d="M583.637 654.069C582.859 654.485 581.6 655.403 580.939 656.043C579.349 657.611 579.712 659.637 581.248 660.896L597.291 674.027L601.141 677.173C601.365 677.355 602.507 677.387 602.784 677.355C604.043 677.237 600.736 674.091 601.099 671.808L613.963 677.344L632.981 685.92L634.389 685.899C634.667 685.899 634.656 685.088 634.656 684.768V683.445C634.635 683.061 635.936 682.976 636.448 682.944C644.533 686.037 652.181 689.579 659.296 694.389C665.12 698.315 669.408 703.168 671.317 710.229C669.76 710.165 668.427 709.717 667.157 709.184L657.547 705.163L661.269 715.051L664.192 723.872C664.299 724.203 664.085 725.333 663.872 725.579C663.584 725.909 662.475 726.165 662.037 726.08C654.976 724.736 649.003 721.696 643.104 717.76C641.835 716.907 640.192 716.853 638.955 717.675C640.096 713.973 635.488 709.131 631.285 707.168L624.811 710.677L623.264 708.971L603.328 706.379C595.744 705.12 588.64 703.307 581.472 700.565C580.939 700.512 579.84 700.373 579.541 700.672C578.72 701.504 579.349 703.68 578.613 703.819L577.035 704.107L561.035 697.995C560.853 697.909 559.435 697.557 559.403 697.888L559.253 699.531C559.168 700.523 558.837 701.877 558.304 702.859C552.363 702.485 546.283 700.843 542.176 696.395C534.4 687.989 534.464 674.859 530.784 674.101L521.184 672.128C520.171 672.907 519.328 674.432 518.955 675.627L515.264 687.392C512.363 694.144 506.688 700.405 499.072 701.664C492.789 702.699 486.112 702.123 479.904 701.291C477.141 700.928 475.147 700.107 472.437 701.387C469.045 702.997 465.472 704.085 461.685 705.013C448.565 707.467 435.627 708.619 422.325 708.8L420.117 710.155C419.573 710.485 420.512 712.021 420.821 712.448C417.28 710.155 412.949 708.363 408.8 710.485C407.915 710.933 406.283 712.448 405.707 713.355L405.056 711.424L391.168 720.427L379.637 727.872C377.952 722.219 379.584 717.963 381.12 712.544C377.6 711.307 374.613 715.701 369.6 716.48C370.88 713.589 372.139 711.648 374.08 709.376L380.096 702.379C380.405 702.016 380.8 700.416 380.405 700.256C377.845 699.168 375.957 700.256 374.475 698.923L386.304 690.443L396.981 681.173C400.107 678.464 403.979 676.843 408.096 675.723L406.677 680.48C406.517 681.024 407.947 681.643 408.427 681.472L420.864 676.875L439.595 670.027C440.619 669.653 441.515 669.504 442.859 669.472L437.579 677.611L443.477 674.389L467.509 659.616C468.309 659.125 469.28 657.515 469.227 656.704C469.173 655.893 467.957 654.571 467.243 654.187L464.149 652.544L464.693 651.797C465.493 651.264 469.387 653.899 473.685 651.872C480.789 648.523 488.267 647.499 496.171 648.661C500.949 652.875 503.008 658.699 510.037 660.949C515.264 661.995 518.592 662.027 522.848 665.205L525.483 666.069C525.973 666.208 526.165 666.24 527.115 665.888C529.547 665.984 531.413 665.344 532.917 663.52C538.624 661.515 543.627 658.848 548.843 655.851L557.611 650.805L569.696 652.981C574.08 653.739 578.229 653.995 582.656 653.419L583.627 654.091L583.637 654.069Z" fill="#AF7F5C"/>
<path d="M388.096 425.941C370.059 424.587 344.8 422.603 328.949 429.312L316.011 435.829C306.571 440.587 298.475 446.805 289.515 453.408C289.707 449.813 291.979 447.093 293.685 444.224C299.755 434.037 307.584 425.899 317.291 419.136C329.643 410.528 343.083 404.469 357.899 401.451L372.779 399.072C385.696 398.539 398.208 398.208 411.147 398.933C419.723 399.424 428.021 402.048 435.061 406.688C443.115 411.989 448.576 419.893 452.811 428.331C454.603 431.893 456.011 435.296 456.373 439.701L417.792 430.581C407.883 428.235 398.293 426.72 388.107 425.963L388.096 425.941Z" fill="#21120B"/>
<path d="M691.061 425.077L665.419 425.152C653.131 425.824 641.131 428.501 629.099 431.467L609.077 438.016L591.264 443.744C597.12 427.253 611.541 408.064 628.064 402.848C650.304 395.819 679.957 400.939 701.152 410.432C708.875 413.888 715.477 418.603 721.941 424C729.984 430.709 735.659 439.936 738.891 449.941C737.387 450.048 736.352 449.365 735.36 448.352C729.803 442.699 723.936 437.237 716.779 433.781L705.653 428.416C701.269 426.304 696.107 425.067 691.051 425.077H691.061Z" fill="#21120B"/>
<path d="M613.323 727.68L612.619 728.384L609.92 730.773C597.739 740.459 583.669 746.677 568.384 750.165C537.749 757.152 505.952 756.352 475.659 748.096C464.277 744.992 453.867 740.683 443.669 735.029C442.027 734.123 440.875 732.619 439.541 731.499L437.429 729.621C444.789 731.573 452.107 731.936 459.787 732.267L489.44 733.525L497.76 733.493L516.181 736.544C523.019 737.675 530.08 737.429 536.949 736.469L564.715 732.597L575.008 732.128L597.483 730.507L613.333 727.68H613.323Z" fill="#D49A70"/>
<path d="M524.853 666.197C524.395 666.059 523.051 665.632 523.051 665.632C518.155 663.829 515.285 661.973 510.059 660.928C503.029 658.677 500.971 652.853 496.192 648.64C488.299 647.477 480.811 648.501 473.707 651.851C469.408 653.877 465.515 651.253 464.715 651.776L464.171 652.523C455.488 647.925 450.848 638.304 451.595 628.224C452.128 621.035 453.237 614.155 458.347 608.395C459.509 609.984 459.712 611.936 459.915 613.899L461.376 628.64C462.709 635.317 467.019 641.173 473.749 642.923C476.843 643.733 479.232 640.107 479.371 637.504C479.392 637.141 480.053 636.224 480.192 636.149C480.704 637.397 481.803 638.624 483.136 639.221C489.44 642.069 503.253 646.197 504.203 643.221L504.928 640.864C505.707 641.227 505.813 642.229 505.323 643.691C514.347 652.405 518.976 652.587 530.453 652.267C537.6 652.075 543.349 648.64 547.712 643.339C547.605 649.888 563.616 647.392 570.379 642.613L572.896 640.832L573.045 641.739C573.109 642.059 574.251 642.4 574.592 642.272L579.435 640.427C583.829 638.752 586.368 634.795 587.232 630.219C589.301 619.584 587.157 609.429 583.371 599.36L576.672 581.525C593.365 587.413 601.323 609.333 601.419 625.611C601.483 637.963 593.973 648.512 583.637 654.069L582.667 653.397C578.251 653.963 574.091 653.717 569.707 652.96L557.621 650.784L548.853 655.829C543.637 658.827 539.509 662.827 534.027 665.387" fill="#D49A70"/>
<path d="M536.821 802.379C522.88 803.829 511.947 804.085 500.619 795.851C498.571 794.357 498.133 792.203 496.907 790.229L491.211 781.109C489.685 778.656 488.299 775.989 487.797 773.205C487.392 770.933 488.885 769.067 491.04 768.96L519.296 767.68L553.472 766.368L562.571 766.475C565.568 766.507 567.435 769.568 566.816 772.651C565.749 777.995 560.501 781.557 556.939 790.944C556.555 791.957 555.147 792.96 554.155 792.853L548.235 792.235C546.923 792.096 545.589 793.269 545.291 794.603C544.363 798.848 541.365 801.899 536.811 802.368L536.821 802.379Z" fill="#D49A70"/>
<path d="M638.965 717.653C638.368 719.605 636.128 721.301 634.016 722.112C627.296 724.704 620.448 726.4 613.323 727.68L597.472 730.507L574.997 732.128L564.704 732.597L536.939 736.469C530.08 737.429 523.008 737.675 516.171 736.544L497.749 733.493L489.429 733.525L459.776 732.267C452.107 731.936 444.779 731.573 437.419 729.621L420.288 725.088H413.696C409.835 725.088 405.941 723.851 404.021 720.256C403.957 718.208 404.608 715.051 405.696 713.333C406.272 712.416 407.904 710.912 408.789 710.464C412.939 708.341 417.269 710.133 420.811 712.427L427.947 717.056L430.912 718.56C439.125 722.091 447.669 723.445 456.597 724.224L460.853 723.968L485.387 725.003L508.043 727.883C512.245 728.416 516.459 729.419 520.64 729.408H531.979C538.443 729.397 544.629 727.381 551.04 726.677L576.981 723.819L590.357 722.923C597.301 722.453 604.053 720.864 610.592 718.667L613.195 717.344L624.811 710.656L631.285 707.147C635.488 709.12 640.096 713.952 638.955 717.653H638.965Z" fill="#21120B"/>
<path d="M553.973 594.56C553.909 597.675 552.053 600.576 549.28 601.28C546.08 602.101 543.125 599.584 542.517 596.341C540.789 587.115 541.099 577.621 543.627 568.608C544.16 566.709 546.443 564.341 548.32 565.621C553.333 569.056 554.155 586.08 553.973 594.549V594.56Z" fill="#FAE1BD"/>
<path d="M573.088 640.96L570.379 642.613C563.616 647.392 547.605 649.888 547.712 643.339C550.315 640.181 553.088 636.896 556.693 634.475C563.819 629.696 572.373 631.104 573.771 635.627C574.293 637.333 573.771 639.499 573.088 640.96Z" fill="#21120B"/>
<path d="M645.216 788.843C657.056 787.147 677.483 803.979 673.568 809.536C672.992 810.357 670.699 810.88 669.515 810.091C660.725 804.245 652.437 797.44 645.216 788.853V788.843Z" fill="#D49A70"/>
<path d="M504.917 640.864L504.192 643.221C503.243 646.197 489.429 642.069 483.125 639.221C481.792 638.613 480.693 637.387 480.181 636.149C483.381 629.867 493.365 630.347 499.904 634.229C502.464 635.744 503.979 638.272 504.917 640.875V640.864Z" fill="#21120B"/>
<path d="M678.837 796.907C677.771 799.04 671.904 797.227 669.355 794.432L655.456 779.136C654.656 778.251 654.261 776.811 654.347 775.488C663.616 777.483 682.272 790.016 678.827 796.907H678.837Z" fill="#D49A70"/>
<path d="M370.891 798.901C368.619 798.592 366.965 796.715 366.496 794.592L371.563 789.824C378.304 785.269 385.067 781.195 392.587 778.091C392.992 778.016 394.613 777.76 394.528 778.187L394.144 780.224C387.755 787.84 380.213 794.219 370.891 798.901Z" fill="#D49A70"/>
<path d="M370.933 810.443C369.536 810.795 367.776 810.613 366.507 810.091C367.349 808.331 368.512 807.136 370.005 806.187C376.693 801.92 383.765 798.645 391.424 796.427C393.141 795.925 394.731 796.032 396.715 796.448C395.84 798.443 394.933 799.499 393.419 800.512C386.592 805.109 379.2 808.384 370.923 810.443H370.933Z" fill="#D49A70"/>
<path d="M304.491 743.829C302.155 746.752 298.603 751.093 296.875 750.432C295.04 749.728 296.459 745.781 298.987 742.869C305.237 735.691 312.139 729.397 319.819 723.829C321.419 722.667 323.061 721.525 325.227 722.357L315.691 732.021L311.989 734.464L304.491 743.819V743.829Z" fill="#D49A70"/>
<path d="M290.272 712.395C289.056 713.973 286.72 715.755 285.131 714.208C280.992 710.165 295.861 696.715 302.048 692.203C303.371 691.243 304.469 690.805 306.645 690.432L303.072 695.797L290.272 712.384V712.395Z" fill="#D49A70"/>
<path d="M366.187 786.219C363.381 787.787 360.832 788.597 357.515 788.683C358.251 786.293 359.68 784.747 361.579 783.381C369.248 777.835 377.611 772.608 387.424 770.347C381.301 777.109 373.888 781.92 366.187 786.208V786.219Z" fill="#D49A70"/>
<path d="M478.709 838.624C481.195 841.472 479.019 847.413 477.035 851.819C476.469 853.067 474.112 853.973 473.077 853.035C468.469 848.885 478.197 833.707 483.104 827.712C483.915 826.731 485.173 825.984 486.421 825.867C485.877 831.221 482.763 835.499 478.709 838.624Z" fill="#D49A70"/>
<path d="M377.237 759.755C379.936 766.176 362.187 772.064 354.389 770.88C355.381 768.267 357.269 767.04 359.413 765.845C364.875 762.805 370.987 760.907 377.237 759.755Z" fill="#D49A70"/>
<path d="M703.189 785.024C697.291 780.811 689.611 770.229 690.891 763.296C692.736 764.181 693.483 764.981 694.549 766.251C697.835 772.096 701.312 777.739 703.189 785.024Z" fill="#D49A70"/>
<path d="M730.528 688.704C739.968 699.019 738.528 709.824 737.579 709.099L736.224 708.053L727.819 688.619C728.619 688.149 730.027 688.16 730.528 688.693V688.704Z" fill="#D49A70"/>
<path d="M681.685 766.24C674.88 765.397 668.085 763.147 663.029 758.325C669.685 756.576 682.88 759.915 681.685 766.24Z" fill="#D49A70"/>
<path d="M312.619 767.275C312.075 761.205 323.883 756.277 330.795 756.576C326.432 762.336 320.085 765.483 312.619 767.275Z" fill="#D49A70"/>
<path d="M569.504 840.693C572.075 845.856 575.563 854.88 572.459 858.763L570.592 857.344C568.704 852.149 567.317 847.232 566.517 841.76L567.573 839.669C567.797 839.221 569.259 840.203 569.504 840.693Z" fill="#D49A70"/>
<path d="M506.72 859.808C508.757 866.976 502.357 873.92 500.619 871.072C498.443 867.52 499.445 863.008 502.123 860.032C503.083 858.965 506.027 858.528 506.72 859.808Z" fill="#D49A70"/>
<path d="M294.133 683.584C296.885 683.179 286.891 699.584 283.349 698.709C282.88 698.592 282.539 697.589 282.389 696.832C284.907 691.637 288.128 687.275 292.608 683.819L294.133 683.595V683.584Z" fill="#D49A70"/>
<path d="M509.493 840.096C511.605 844.715 509.109 852.267 503.147 852.437C501.621 844.779 508.245 837.387 509.493 840.096Z" fill="#D49A70"/>
<path d="M730.251 717.685C734.112 720.597 740.491 726.08 739.189 729.653C737.184 728.928 735.787 727.861 734.272 726.475C730.88 723.36 727.403 720.661 725.205 716.075C727.029 715.819 728.8 716.597 730.251 717.685Z" fill="#D49A70"/>
<path d="M300.896 721.141C298.976 722.955 296.939 723.904 294.219 724.693C294.101 723.669 294.315 722.677 294.688 721.728L307.179 712.64C307.648 712.661 308.651 712.683 308.619 712.971C308.587 713.259 308.341 714.08 308.053 714.357L300.907 721.131L300.896 721.141Z" fill="#D49A70"/>
<path d="M292.053 673.291C294.859 672.875 281.365 689.472 280.992 686.411L280.789 684.789C283.083 680.235 286.229 676.267 290.528 673.525L292.053 673.301V673.291Z" fill="#D49A70"/>
<path d="M717.888 495.296L708.747 488.245C691.669 476.192 671.307 469.781 650.272 469.92C635.925 470.016 622.464 473.579 609.696 479.637L594.229 487.979C595.051 483.968 598.315 482.763 600.779 480.331C610.795 473.963 621.504 468.8 633.429 466.56C646.549 464.096 659.883 463.968 672.971 466.869C686.773 469.931 699.221 476.693 710.261 485.163C713.728 487.819 716.288 490.944 718.507 494.496L718.688 495.029L718.656 495.851L717.899 495.296H717.888Z" fill="#D49A70"/>
<path d="M437.92 481.099C404.32 463.851 367.925 463.157 334.293 480.683L315.648 491.648C321.408 483.851 329.099 478.827 337.568 474.763C347.499 469.995 357.333 465.771 368.352 464.128C379.371 462.485 390.603 462.144 401.888 463.477C416.395 465.184 437.173 473.216 446.741 484.885L437.92 481.088V481.099Z" fill="#D49A70"/>
<path d="M624.821 710.656L613.205 717.344L595.509 714.72L568.32 711.104C550.027 708.672 534.987 716.48 511.499 712.651C498.261 710.496 485.397 709.707 472.064 711.605L443.339 715.712C438.016 716.469 432.981 716.885 427.957 717.045L420.821 712.416C420.523 711.989 419.573 710.453 420.117 710.123L422.325 708.768C435.627 708.587 448.555 707.445 461.685 704.981C465.483 704.043 469.056 702.965 472.437 701.355C475.147 700.064 477.141 700.885 479.904 701.259C486.112 702.08 492.789 702.667 499.072 701.632C506.688 700.373 512.363 694.112 515.264 687.36L518.955 675.595C519.328 674.4 520.171 672.875 521.184 672.096L530.784 674.069C534.453 674.827 534.4 687.957 542.176 696.363C546.283 700.811 552.363 702.453 558.304 702.827C558.837 701.845 559.157 700.491 559.253 699.499L559.403 697.856C559.435 697.525 560.853 697.877 561.035 697.963L577.035 704.075L578.613 703.787C579.349 703.659 578.72 701.472 579.541 700.64C579.84 700.341 580.939 700.469 581.472 700.533C588.651 703.275 595.744 705.088 603.328 706.347L623.264 708.939L624.811 710.645L624.821 710.656Z" fill="#FCCAA1"/>
<path d="M450.923 512.139C443.371 508.224 435.669 504.821 427.584 502.219L419.797 500.171L420.885 506.88C421.333 511.691 421.184 516.587 419.435 521.387C417.685 526.187 414.699 530.699 410.549 533.269C400.555 539.435 388.117 541.035 376.875 538.165C376.096 537.963 374.997 537.611 374.261 537.184L370.261 534.88C362.133 529.184 357.771 519.616 358.485 509.536C358.549 508.608 357.355 506.315 356.363 506.72C346.016 510.944 336.597 516.235 327.232 521.707L322.091 524.704C318.496 526.805 311.029 527.979 309.237 524.949C306.997 521.152 314.56 513.024 319.371 509.301C337.899 494.955 363.776 487.157 387.051 485.035C405.141 483.381 424.032 486.475 440.565 493.899C444.661 495.744 448.203 498.315 451.659 501.184C454.219 503.307 456.501 506.827 455.872 510.304C455.488 511.851 452.149 512.117 450.912 512.139H450.923ZM382.528 513.355C383.509 511.787 383.349 509.472 382.581 508.064C381.483 506.059 375.957 502.816 372.512 506.731C371.072 508.373 370.005 510.219 370.763 512.619C371.221 514.048 372.811 515.701 374.784 516.139C377.536 516.747 380.853 516.032 382.528 513.365V513.355Z" fill="#21120B"/>
<path d="M758.176 531.264L758.24 513.813L758.517 504.747L758.155 488.96L757.557 481.344L755.232 426.037C754.997 420.565 754.795 415.605 751.755 410.912C749.472 407.381 747.541 403.381 746.752 399.147L743.851 383.605L740.875 369.141C739.893 364.373 728.043 364 720.843 356.885L715.168 351.285C713.291 349.44 711.872 346.581 709.216 345.44C707.403 344.661 703.147 344.555 701.333 345.387L691.872 349.792C686.816 352.139 681.899 352.832 676.352 352.704C671.381 352.587 666.752 352.704 662.176 350.507C661.365 350.112 660.725 348.693 661.301 348.107L666.656 342.656C666.891 342.421 667.531 341.28 667.232 341.173C666.933 341.067 665.803 340.779 665.429 340.864L655.883 342.987C649.963 343.627 644.085 343.819 638.229 342.667C626.635 340.384 616.459 333.269 609.643 323.851C608.139 321.771 606.816 321.323 604.331 322.187C585.877 328.629 564.011 323.051 552.363 306.645C550.347 306.667 548.661 307.083 546.677 307.52C538.773 309.259 530.763 307.957 523.232 305.173C512.352 301.152 508.608 292.757 505.269 293.483C504.501 293.653 503.36 294.581 502.613 295.296C492.693 304.875 486.901 306.645 473.984 309.568C469.056 310.688 464.373 310.56 459.264 310.464C458.091 310.443 456.416 311.744 455.509 312.704C442.581 326.347 426.293 324.224 412.533 312.48C411.029 311.2 409.632 311.051 408 312.288C401.824 316.971 395.275 320.725 388.373 324.32L376.224 330.645C370.912 333.931 365.547 336.555 359.627 338.645C357.291 339.467 355.232 340.96 353.653 342.901C348.576 349.163 341.301 356.128 333.205 356.16L323.552 356.203C322.069 356.203 319.925 356.096 318.848 357.205C312.096 364.245 304.907 370.315 296.64 375.445L286.571 380.256C284.341 381.323 282.635 383.051 281.963 385.397C279.445 394.187 274.869 401.355 268.715 408C267.488 409.323 266.496 411.968 265.824 413.739C262.347 422.987 260.843 432.331 259.851 442.144L256.619 474.027L255.819 495.936L255.659 508.448V524.299L255.797 536.757L257.568 569.355L262.187 605.141L272.939 671.104L283.733 723.296L286.229 732.32L294.731 758.4C299.861 774.133 317.035 794.411 329.92 803.605L363.403 827.488C364.821 828.501 366.965 828.928 368.427 828.075C371.797 826.091 369.888 820.309 372.16 818.656C378.549 814.005 385.333 810.635 392.757 807.947C395.616 806.912 399.157 806.517 399.52 807.669C399.584 807.883 399.456 808.971 399.317 809.141L394.699 814.955C394.208 815.573 393.717 816.715 394.016 817.184C394.315 817.653 395.637 817.995 396.384 817.973L403.531 817.717C403.829 817.717 404.512 818.603 404.437 818.869C404.384 819.04 404.117 819.829 403.989 819.947L399.019 824.384C395.712 827.339 392.32 829.515 389.429 833.173L414.581 826.187C416.747 825.589 418.507 825.621 421.472 825.771L414.283 834.112C412.416 836.277 410.528 838.005 409.088 840.864C415.819 840.672 421.611 836.085 427.712 836.459C426.059 842.123 420.555 844.96 419.061 849.248C423.275 848.096 425.984 845.621 429.28 843.445C433.984 840.363 438.325 836.821 444.32 835.264C441.835 841.664 432.576 844.288 431.68 848.576C436.139 846.869 439.723 845.259 443.936 845.013C442.795 848.779 441.717 851.019 442.24 854.795L449.077 850.976C455.552 847.36 460.864 842.379 465.013 836.203C466.357 834.197 467.957 832.459 470.08 830.891C471.083 835.349 469.525 838.965 467.744 842.432C466.635 844.597 464.523 844.715 462.667 845.707C457.056 848.704 452.544 853.099 447.957 858.123C451.531 859.531 455.989 856.939 456.224 860.619L456.917 871.68C457.12 874.955 462.421 872.832 462.848 876.448L463.392 881.099C463.616 883.061 464.832 884.16 466.763 884.203C471.488 884.309 467.637 874.496 472.544 864.725C473.205 863.403 474.667 862.112 476.224 862.635L478.325 873.856C479.211 878.603 479.659 883.168 481.451 887.723C483.456 889.248 488.501 889.195 489.973 886.752C491.669 881.621 490.677 875.328 488.203 870.645C487.36 869.045 485.76 867.712 485.728 865.76C485.611 856.181 485.653 841.696 493.792 836.683L493.504 849.397C493.397 854.08 492.651 859.008 493.739 863.595C495.467 870.965 496.832 878.037 497.344 885.557C497.739 891.467 503.584 893.301 505.077 892.395C505.632 892.053 506.485 890.709 506.613 889.973L508.075 881.195C508.448 878.987 509.184 876.299 511.136 874.923C512.117 874.677 513.525 876.107 515.136 877.589L517.344 869.451C518.901 863.744 522.453 859.371 523.04 860.565L523.851 862.229L524.405 882.635C524.683 885.611 524.725 888.629 525.931 891.403C526.592 892.907 531.467 892.885 531.744 891.275L533.056 883.669C533.28 882.389 534.656 881.184 535.787 881.301C539.36 881.664 539.2 887.957 542.453 890.613C544.32 892.128 548.053 891.136 549.792 889.579C550.496 888.245 549.803 885.835 549.248 884.363C547.296 879.221 545.291 870.667 547.125 870.496C548.768 870.336 551.904 873.973 553.824 876.555L558.741 883.115C560.277 885.163 564.245 886.517 565.973 883.808C566.987 881.963 565.547 878.517 564.8 876.48L558.645 859.552C557.621 856.736 557.163 854.069 558.091 850.624C560.875 853.824 562.421 857.109 564.309 860.555L571.381 873.461C573.269 876.907 577.312 878.955 578.784 877.088C579.189 876.576 579.691 875.179 579.552 874.517L577.301 863.392C576.875 861.269 576.459 859.221 577.056 857.024C578.848 857.355 580.405 858.411 581.685 859.531L590.997 867.605C590.272 859.851 582.837 852.288 580.565 844.064C586.592 846.379 590.795 852.704 596.085 855.552C594.357 849.195 592.128 844.683 592.32 838.315L599.488 841.739C601.397 842.656 602.944 843.232 605.483 843.755C604.309 840.832 602.72 838.987 601.088 836.565L596.277 829.419C597.739 828.757 599.136 828.853 600.277 829.707L611.125 837.792C614.453 840.277 617.397 842.976 621.749 844.075C621.355 841.216 619.84 839.712 618.411 837.621L613.707 830.752C613.461 830.4 613.504 829.152 613.845 829.12L615.264 829.024L628.725 836.075C631.541 837.643 633.941 839.264 637.472 839.477C636.096 836.011 634.272 834.037 632.299 831.403L626.933 824.235C626.656 823.861 626.699 822.453 627.083 822.432C627.371 822.421 628.256 822.432 628.629 822.592L639.829 826.944L637.259 819.904C636.917 818.965 638.859 818.229 640.021 818.261L655.563 818.677C652.491 812.331 645.12 809.664 641.184 804.64C649.472 804.341 656.992 806.325 664.256 809.195C667.232 810.368 669.835 812.885 670.261 816L671.381 824.224C671.563 825.568 672.235 826.784 673.536 827.52C691.861 813.803 716.416 791.477 727.125 771.2C733.717 758.731 738.08 746.059 741.152 732.32C744.885 715.573 747.36 699.093 748.853 681.941L753.984 623.275L757.397 560.693L758.272 555.509L758.549 541.728C758.624 538.037 758.187 534.891 758.197 531.221L758.176 531.264ZM628.064 402.837C650.304 395.808 679.957 400.928 701.152 410.421C708.875 413.877 715.477 418.592 721.941 423.989C729.984 430.699 735.659 439.925 738.891 449.931C737.387 450.037 736.352 449.355 735.36 448.341C729.803 442.688 723.936 437.227 716.779 433.771L705.653 428.405C701.269 426.293 696.107 425.056 691.051 425.067L665.408 425.141C653.12 425.813 641.12 428.491 629.088 431.456L609.067 438.005L591.253 443.733C597.109 427.243 611.531 408.053 628.053 402.837H628.064ZM737.579 709.099L736.224 708.053L727.819 688.619C728.619 688.149 730.027 688.16 730.528 688.693C739.968 699.008 738.517 709.813 737.579 709.088V709.099ZM718.496 494.496L717.899 495.296L708.757 488.245C691.68 476.192 671.317 469.781 650.283 469.92C635.936 470.016 622.475 473.579 609.707 479.637L594.24 487.979C595.061 483.968 598.325 482.763 600.789 480.331C610.805 473.963 621.515 468.8 633.44 466.56C646.56 464.085 659.893 463.968 672.981 466.869C686.784 469.931 699.232 476.693 710.272 485.163C713.739 487.819 716.299 490.944 718.517 494.496H718.496ZM605.344 409.28L606.944 409.088C609.493 408.779 600.811 425.013 593.387 427.595C595.403 420.128 599.829 414.08 605.355 409.28H605.344ZM588.523 414.496C589.408 412.779 590.475 411.275 592.576 410.688C592.96 411.936 593.173 413.888 592.8 415.051L585.365 438.368C585.003 439.499 584.405 440.171 582.987 441.664C580.043 434.912 584.885 421.557 588.523 414.485V414.496ZM557.493 500.16C558.816 490.421 563.189 481.579 569.376 474.24C574.059 469.12 579.403 465.547 586.219 464.117L588.16 464.779C588.608 464.928 588.64 466.581 588.395 467.029L585.792 471.691C577.643 482.784 571.339 495.296 569.077 509.013L567.819 522.475C567.712 523.563 566.667 524.853 565.963 525.024C561.568 526.112 556 511.136 557.493 500.16ZM470.603 436.395C470.731 438.688 470.613 440.811 468.693 442.005L457.995 414.443C456.992 411.851 456.299 409.28 456.203 406.293C465.515 410.965 470.005 425.835 470.603 436.384V436.395ZM444.459 407.008C448.267 410.261 451.829 414.08 454.603 418.123L452.512 421.44L448.587 416.203C446.389 413.269 444.139 410.773 440.875 409.003L439.829 406.059C440.939 405.685 443.179 405.931 444.459 407.019V407.008ZM293.675 444.224C299.744 434.037 307.573 425.899 317.28 419.136C329.632 410.528 343.072 404.469 357.888 401.451L372.768 399.072C385.685 398.539 398.197 398.208 411.136 398.933C419.712 399.424 428.011 402.048 435.051 406.688C443.104 411.989 448.565 419.893 452.8 428.331C454.592 431.893 456 435.296 456.363 439.701L417.781 430.581C407.872 428.235 398.283 426.72 388.096 425.963C370.059 424.608 344.8 422.624 328.949 429.333L316.011 435.851C306.571 440.608 298.475 446.827 289.515 453.429C289.707 449.835 291.979 447.115 293.685 444.245L293.675 444.224ZM452.341 513.931C453.504 516.245 438.411 525.461 431.936 527.691L411.04 534.891L410.549 533.269C400.555 539.435 388.117 541.035 376.875 538.165C376.096 537.963 374.997 537.611 374.261 537.184L370.261 534.88L370.336 536.469C359.627 535.168 349.376 532.939 339.072 529.248C334.805 527.723 327.189 524.416 327.232 521.696L322.091 524.693C318.496 526.795 311.029 527.968 309.237 524.939C306.997 521.141 314.56 513.013 319.371 509.291C337.899 494.944 363.776 487.147 387.051 485.024C405.141 483.371 424.032 486.464 440.565 493.888C444.661 495.733 448.203 498.304 451.659 501.173C454.219 503.296 456.501 506.816 455.872 510.293C455.488 511.84 452.149 512.107 450.912 512.128C451.392 512.64 452.064 513.397 452.331 513.92L452.341 513.931ZM315.659 491.659C321.419 483.861 329.109 478.837 337.579 474.773C347.509 470.005 357.344 465.781 368.363 464.139C379.531 462.475 390.613 462.155 401.899 463.488C416.405 465.195 437.184 473.227 446.752 484.896L437.931 481.099C404.331 463.851 367.936 463.157 334.304 480.683L315.659 491.648V491.659ZM280.992 686.411L280.789 684.789C283.083 680.235 286.229 676.267 290.528 673.525L292.053 673.301C294.859 672.885 281.365 689.483 280.992 686.421V686.411ZM283.349 698.709C282.88 698.592 282.539 697.589 282.389 696.832C284.907 691.637 288.128 687.275 292.608 683.819L294.133 683.595C296.885 683.189 286.891 699.595 283.349 698.72V698.709ZM285.131 714.208C280.992 710.165 295.861 696.715 302.048 692.203C303.371 691.243 304.469 690.805 306.645 690.432L303.072 695.797L290.272 712.384C289.056 713.963 286.72 715.744 285.131 714.197V714.208ZM294.219 724.704C294.101 723.68 294.315 722.688 294.688 721.739L307.179 712.651C307.648 712.672 308.651 712.693 308.619 712.981C308.587 713.269 308.341 714.091 308.053 714.368L300.907 721.141C298.987 722.955 296.949 723.904 294.229 724.693L294.219 724.704ZM304.491 743.829C302.155 746.752 298.603 751.093 296.875 750.432C295.04 749.728 296.459 745.781 298.987 742.869C305.237 735.691 312.139 729.397 319.819 723.829C321.419 722.667 323.061 721.525 325.227 722.357L315.691 732.021L311.989 734.464L304.491 743.819V743.829ZM312.619 767.275C312.075 761.205 323.883 756.277 330.795 756.576C326.432 762.336 320.085 765.483 312.619 767.275ZM354.389 770.88C355.381 768.267 357.269 767.04 359.413 765.845C364.875 762.805 370.987 760.907 377.237 759.755C379.936 766.187 362.187 772.064 354.389 770.88ZM357.515 788.683C358.251 786.293 359.68 784.747 361.579 783.381C369.248 777.835 377.611 772.608 387.424 770.347C381.301 777.109 373.888 781.92 366.187 786.208C363.381 787.776 360.832 788.587 357.515 788.672V788.683ZM371.563 789.824C378.304 785.269 385.067 781.195 392.587 778.091C392.992 778.016 394.613 777.76 394.528 778.187L394.144 780.224C387.755 787.84 380.213 794.219 370.891 798.901C368.619 798.592 366.965 796.715 366.496 794.592L371.563 789.824ZM393.429 800.523C386.603 805.131 379.211 808.395 370.933 810.453C369.536 810.805 367.776 810.624 366.507 810.101C367.349 808.341 368.512 807.147 370.005 806.197C376.693 801.931 383.765 798.656 391.424 796.437C393.152 795.936 394.731 796.043 396.715 796.459C395.84 798.453 394.933 799.509 393.419 800.523H393.429ZM478.709 838.624C481.195 841.472 479.019 847.413 477.035 851.819C476.469 853.067 474.112 853.973 473.077 853.035C468.469 848.885 478.197 833.707 483.104 827.712C483.915 826.731 485.173 825.984 486.421 825.867C485.877 831.221 482.763 835.499 478.709 838.624ZM500.619 871.061C498.443 867.509 499.445 862.997 502.123 860.021C503.083 858.955 506.027 858.517 506.72 859.797C508.757 866.965 502.357 873.909 500.619 871.061ZM503.147 852.427C501.621 844.768 508.245 837.376 509.493 840.085C511.605 844.704 509.109 852.256 503.147 852.427ZM556.939 790.944C556.555 791.957 555.147 792.96 554.155 792.853L548.235 792.235C546.923 792.096 545.589 793.269 545.291 794.603C544.363 798.848 541.365 801.899 536.811 802.368C522.869 803.819 511.936 804.075 500.608 795.84C498.56 794.347 498.123 792.192 496.896 790.219L491.2 781.099C489.675 778.645 488.288 775.979 487.787 773.195C487.381 770.923 488.875 769.056 491.029 768.949L519.285 767.669L553.461 766.357L562.56 766.464C565.557 766.496 567.424 769.557 566.805 772.64C565.739 777.984 560.491 781.547 556.928 790.933L556.939 790.944ZM572.459 858.763L570.592 857.344C568.704 852.149 567.317 847.232 566.517 841.76L567.573 839.669C567.797 839.221 569.259 840.203 569.504 840.693C572.075 845.856 575.563 854.88 572.459 858.763ZM643.104 717.749C641.835 716.896 640.192 716.843 638.955 717.664C638.357 719.616 636.117 721.312 634.005 722.123C627.285 724.715 620.437 726.411 613.312 727.691L612.608 728.395L609.909 730.784C597.728 740.469 583.659 746.688 568.373 750.176C537.739 757.163 505.941 756.363 475.648 748.107C464.267 745.003 453.856 740.693 443.659 735.04C442.016 734.133 440.864 732.629 439.531 731.509L437.419 729.632L420.288 725.099H413.696C409.835 725.099 405.941 723.861 404.021 720.267C403.957 718.219 404.608 715.061 405.696 713.344L405.045 711.413L391.157 720.416L379.627 727.861C377.941 722.208 379.573 717.952 381.109 712.544C377.589 711.307 374.603 715.701 369.589 716.48C370.869 713.589 372.128 711.648 374.069 709.376L380.085 702.379C380.395 702.016 380.789 700.416 380.395 700.256C377.835 699.168 375.947 700.256 374.464 698.923L386.293 690.443L396.971 681.173C400.096 678.464 403.968 676.843 408.085 675.723L406.667 680.48C406.507 681.024 407.936 681.643 408.416 681.472L420.853 676.875L439.584 670.027C440.608 669.653 441.504 669.504 442.848 669.472L437.568 677.611L443.467 674.389L467.499 659.616C468.299 659.125 469.269 657.515 469.216 656.704C469.163 655.893 467.947 654.571 467.232 654.187L464.139 652.544C455.456 647.947 450.816 638.325 451.563 628.245C452.096 621.056 453.205 614.176 458.315 608.416C459.477 610.005 459.68 611.957 459.883 613.92L461.344 628.661C462.677 635.339 466.987 641.195 473.717 642.944C476.811 643.755 479.2 640.128 479.339 637.525C479.36 637.163 480.021 636.245 480.16 636.171C483.36 629.888 493.344 630.368 499.883 634.251C502.443 635.765 503.957 638.293 504.896 640.896C505.675 641.259 505.781 642.261 505.291 643.723C514.315 652.437 518.944 652.619 530.421 652.299C537.568 652.107 543.317 648.672 547.68 643.371C550.283 640.213 552.864 636.8 556.469 634.389C563.595 629.611 572.149 631.019 573.547 635.541C574.069 637.248 573.547 639.413 572.864 640.875L573.013 641.781C573.077 642.101 574.219 642.443 574.56 642.315L579.403 640.469C583.797 638.795 586.336 634.837 587.211 630.261C589.28 619.627 587.136 609.472 583.349 599.403L576.651 581.568C593.344 587.456 601.301 609.376 601.397 625.653C601.461 638.005 593.952 648.555 583.616 654.112C582.837 654.528 581.579 655.445 580.917 656.085C579.328 657.653 579.691 659.68 581.227 660.939L597.269 674.069L601.12 677.216C601.344 677.397 602.485 677.429 602.763 677.397C604.021 677.28 600.715 674.133 601.088 671.851L613.952 677.387L632.971 685.963L634.379 685.941C634.656 685.941 634.645 685.131 634.645 684.811V683.488C634.624 683.104 635.925 683.019 636.437 682.987C644.523 686.08 652.171 689.621 659.285 694.432C665.109 698.357 669.397 703.211 671.307 710.272C669.749 710.208 668.416 709.76 667.147 709.227L657.536 705.205L661.259 715.093L664.181 723.915C664.288 724.245 664.075 725.376 663.861 725.621C663.573 725.952 662.464 726.208 662.027 726.123C654.965 724.779 648.992 721.739 643.093 717.803L643.104 717.749ZM673.568 809.525C672.992 810.347 670.699 810.869 669.515 810.08C660.725 804.235 652.437 797.429 645.216 788.843C657.056 787.147 677.483 803.979 673.568 809.536V809.525ZM678.837 796.907C677.771 799.04 671.904 797.227 669.355 794.432L655.456 779.136C654.656 778.251 654.261 776.811 654.347 775.488C663.616 777.483 682.272 790.016 678.827 796.907H678.837ZM681.685 766.24C674.88 765.397 668.085 763.147 663.029 758.325C669.685 756.576 682.88 759.915 681.685 766.24ZM690.891 763.296C692.736 764.181 693.483 764.981 694.549 766.251C697.835 772.096 701.312 777.739 703.189 785.024C697.291 780.811 689.611 770.229 690.891 763.296ZM720.661 526.624C719.424 527.605 716.715 527.616 715.339 526.859L708.608 523.179L708.064 523.883L704.491 526.453C690.955 529.685 675.563 532.107 661.792 535.392C661.195 535.531 660.693 536.907 660.107 537.056L652.053 539.403C642.613 540.213 633.472 537.397 625.717 532.8L625.739 532.715L588.907 515.797C587.211 515.531 585.707 513.664 585.931 511.349C587.392 496.448 616.704 488.533 631.211 486.901C654.485 484.299 674.677 488.608 695.765 498.251C701.259 500.768 706.08 504.075 710.784 507.765C716.757 512.459 725.909 522.453 720.672 526.624H720.661ZM739.189 729.664C737.184 728.939 735.787 727.872 734.272 726.485C730.88 723.371 727.403 720.672 725.205 716.085C727.029 715.829 728.8 716.608 730.251 717.696C734.112 720.608 740.491 726.091 739.189 729.664Z" fill="#FCCAA1"/>
<path d="M370.261 534.891L370.336 536.48C359.627 535.179 349.376 532.949 339.072 529.259C334.805 527.733 327.189 524.427 327.232 521.707C336.587 516.235 346.016 510.944 356.363 506.72C357.355 506.315 358.549 508.608 358.485 509.536C357.771 519.627 362.133 529.184 370.261 534.88V534.891Z" fill="white"/>
<path d="M382.528 513.355C380.864 516.021 377.547 516.736 374.784 516.128C372.811 515.691 371.221 514.037 370.763 512.608C370.005 510.208 371.061 508.363 372.512 506.72C375.947 502.805 381.472 506.048 382.581 508.053C383.349 509.461 383.509 511.776 382.528 513.344V513.355Z" fill="white"/>
<path d="M452.341 513.931C452.075 513.397 451.403 512.64 450.923 512.139C443.371 508.224 435.669 504.821 427.584 502.219L419.797 500.171L420.885 506.88C421.333 511.691 421.184 516.587 419.435 521.387C417.717 526.091 408.288 533.909 404.139 536.48L411.04 534.891L431.936 527.691C438.411 525.461 453.504 516.245 452.341 513.931Z" fill="white"/>
<path d="M660.459 537.173L652.235 539.52C642.795 540.331 633.461 537.397 625.707 532.8L624.651 531.904C619.093 525.301 616.107 516.832 617.024 507.883C616.832 506.475 616.48 505.067 615.669 504.213C606.165 507.52 597.632 511.605 588.907 515.787C587.211 515.52 585.707 513.653 585.931 511.339C587.392 496.437 616.704 488.523 631.211 486.891C654.485 484.288 674.677 488.597 695.765 498.24C701.259 500.757 706.08 504.064 710.784 507.755C716.757 512.448 725.909 522.443 720.672 526.613C719.435 527.595 716.725 527.605 715.349 526.848L708.619 523.168H708.267L705.664 521.397C697.867 515.371 688.811 510.72 679.445 506.827L676.843 506.912C676.192 506.933 675.509 508.544 675.541 509.237C676.011 519.403 671.403 528.768 663.616 534.976M637.451 515.104C639.552 513.653 639.467 510.784 638.816 508.864C638.101 506.795 636.299 505.205 633.952 505.227C631.029 505.248 628.779 506.315 627.531 508.523C626.389 510.528 626.219 513.696 628.523 515.339C630.827 516.981 635.093 516.736 637.451 515.104Z" fill="#21120B"/>
<path d="M708.469 523.403C707.616 524.736 706.368 525.76 704.896 526.336C691.648 531.541 664.949 538.293 652.235 539.52L660.288 537.173L664.885 533.579C672.683 527.371 675.467 519.2 674.997 509.045C674.965 508.363 676.192 506.955 676.832 506.933L679.435 506.848C688.8 510.741 697.856 515.392 705.653 521.419L708.608 523.189L708.469 523.403Z" fill="white"/>
<path d="M589.643 517.771C589.28 517.397 588.907 516.181 588.885 515.808C597.611 511.616 606.144 507.541 615.648 504.235C616.459 505.077 616.811 506.496 617.003 507.904C616.096 516.843 620.139 526.208 625.696 532.811" fill="white"/>
<path d="M637.451 515.104C635.093 516.736 630.891 517.035 628.523 515.339C626.155 513.643 626.389 510.528 627.531 508.523C628.789 506.315 631.029 505.259 633.952 505.227C636.288 505.205 638.101 506.805 638.816 508.864C639.477 510.773 639.552 513.653 637.451 515.104Z" fill="white"/>
<path d="M613.205 717.333L610.603 718.656C604.064 720.843 597.312 722.443 590.368 722.912L576.992 723.808L551.051 726.667C544.64 727.371 538.453 729.387 531.989 729.387H520.651C516.469 729.397 512.245 728.395 508.053 727.861L485.397 724.981L460.864 723.947L456.608 724.203C447.68 723.424 439.136 722.08 430.923 718.539L427.957 717.035C432.981 716.875 438.016 716.459 443.339 715.701L472.064 711.595C485.408 709.685 498.261 710.475 511.499 712.64C534.997 716.469 550.037 708.661 568.32 711.093L595.509 714.709L613.205 717.333Z" fill="#D49A70"/>
</svg>
